<svg id="Layer_1" data-name="Layer 1" xmlns="http://www.w3.org/2000/svg" xmlns:xlink="http://www.w3.org/1999/xlink" viewBox="0 0 189 116"><defs><style>.cls-1{fill:none;}.cls-2{clip-path:url(#clip-path);}.cls-3,.cls-5{fill:#01c188;}.cls-3,.cls-4{fill-rule:evenodd;}.cls-4{fill:#ff6a14;}</style><clipPath id="clip-path"><rect class="cls-1" x="-16.76" y="-27.98" width="222.52" height="171.95"/></clipPath></defs><g class="cls-2"><path class="cls-3" d="M153,68l-.17.13a2.32,2.32,0,0,1,0,.46,2,2,0,0,0,.09.87l.07.27c0,.58-.2.47-.26.75a1.05,1.05,0,0,1-.06.24c-.07.19,0,.07-.11.16l-.13.11c0,.06,0-.06,0,.13.13,0,.56,0,.74,0a2.12,2.12,0,0,0,1-.17c.17-.06.35-.25.52-.32s.11,0,.28-.13c.33-.28.25-.15.52-.32s.27-.21.5-.35.18-.12.26-.17c.24-.15.34-.08.52-.33l.11-.15c.07-.12,0,0,.08-.11s.22,0,.45-.43c.1-.17.09-.08.21-.21l0-.06,0,0c.39-.56.56-.45,1.14-1.35.09-.15.05-.07.11-.14s.11-.26.24-.43c.23-.32.17-.51.5-.86s.17-.35.18-.58c.25-.15.17-.14.35-.37a2,2,0,0,0,.53-1,1.9,1.9,0,0,0,.29-1.18l0-.28a1.41,1.41,0,0,0-.31-.71c-.19-.31-.16-.14-.35-.32s.09-.21-.28-.48l0,0-.1-.1c0-.06,0-.16-.18-.28s-.37-.13-.56-.26-.29-.13-.25-.45c-.3-.14-.19-.29-.32-.48l-.05,0a.28.28,0,0,1,0-.39c.07-.09,0,0,.1-.11s0,0,0-.1c.27-.56,0,.11.36-.38a.57.57,0,0,1,.62-.28,1.85,1.85,0,0,1,.59.18c.33.14.76.18,1.18.31l1.13.4a4.5,4.5,0,0,1,1.13.65,2.62,2.62,0,0,0,.83.57l.69.37c.39.29.27.07.87.58l.3.25c.18.15.11.23.33.47a5.8,5.8,0,0,0,.66.73l.25.29v0l0,0c.31.51.46.37.63.67l.08.22c0,.32,0,.22.13.35s0,.08.06.22c.09.41.24.08.37.53l.15.58a.84.84,0,0,1,0,.14c0,.06,0,0,0,.11s.49.62.4,1.18c.36,0,.14,0,.26,0l.43-.26a.78.78,0,0,0,.26-.3c.17-.35,0,0,.2-.3s0-.1,0-.28.24-.39.35-.57,0-.42.43-.83c-.1-.24-.11-.08-.07-.33s0-.05,0-.35.24-1.14.17-1.63.11-.49.14-.66-.1,0-.08-.39a4.44,4.44,0,0,1,0-.5c.07-.55,0-.67,0-1-.36-.24-.28-.24-.5-.55a3.15,3.15,0,0,1-.22-.29l-.17-.3c-.13-.28-.37-.32-.38-.66a.33.33,0,0,0-.09-.3c-.14-.18-.09-.11-.31-.11,0-.16,0-.12.08-.22-.24-.09-.29-.22-.39-.4s-.25-.21-.37-.35-.08-.23-.21-.35l-.57-.39a3.32,3.32,0,0,1-.61-.72c-.19-.34-.25-.28-.53-.58s-.09-.11-.53-.29c-.2-.09,0-.12-.37-.18a3.32,3.32,0,0,1-1.2-.43,7.85,7.85,0,0,0-.9-.31c-.18-.08-.12-.08-.24-.15a2.88,2.88,0,0,0-1.31-.17.67.67,0,0,0-.48.16c-.3,0-1,0-1.06-.11s0-.91.29-1.1l.55-.34c.12-.06.18,0,.31-.1s.07-.09.31-.15a1.17,1.17,0,0,1,.37-.08l.69-.36a1.33,1.33,0,0,1,.45-.25,4.62,4.62,0,0,1,1.24-.59c.58-.15.64-.36,1.38-.42a1.67,1.67,0,0,0,.75-.12,3.4,3.4,0,0,1,.67-.24,3.68,3.68,0,0,1,1.37-.44c.61-.15.49-.4,1.48-.23.4.07.45.2.78.26l1,.15c.3,0,.64.11.94.16a1.88,1.88,0,0,1,.38.13,2.85,2.85,0,0,0,.46.1l.06-.07,0,0c.31-.35.06-.42-.07-.74a1.43,1.43,0,0,1-.06-.21c-.07-.19-.18-.15-.26-.36a.76.76,0,0,0-.12-.2c-.27-.34-.29-.48-.69-.61-.21-.07-.22-.13-.32-.3s-.19-.11-.41-.25-.1-.15-.39-.25l0-.29c-.37-.07-.26-.12-.56-.22-.07,0-.23,0-.27-.06s.12-.06-.22-.16,0,.09-.42-.24l0,0-.18-.12-.11-.09-.58-.37c-.35-.19-.11-.16-.56-.27s-.6-.25-.88-.31a9.11,9.11,0,0,1-1.65-.44,3.5,3.5,0,0,0-1.3-.26,8.28,8.28,0,0,1-1.26,0,2.93,2.93,0,0,0-.71-.05c-.21,0-.19.12-.38.14h-.17c-.27,0-.32.07-.6,0s-.29.06-.85.12l-.78.15h0l-1.23.22c-.57.06-.08-.06-.58.12l-1.26.29h-.11c-.49.11-.11.14-.48.27l-.33.17,0,0-.23.26a1.38,1.38,0,0,0-.17.31c-.11.17-.06.05-.21.15s-.19.23-.41.35-.27.07-.37.22-.13.15-.34.19-.12,0-.29.08a1.28,1.28,0,0,0,0,.28c-.44,0-.32.24-1,.16-.28-.68-.37.12-1.14-.27-.18-.09-.22-.32-.25-.5a1.82,1.82,0,0,1,0-.74,11.21,11.21,0,0,0,.15-1.59c0-.32-.15-.3-.1-.64s.13-.5.17-.81l-.18-.24v-.07l0-.08c-.06-.26,0-.48-.18-.68a.54.54,0,0,1-.1-.2c-.08-.23,0-.23-.26-.34,0-.38.14-.44,0-.76s.07-.33,0-.67c0-.11,0-.23,0-.35l0-.24a3,3,0,0,0-.13-.79,4.76,4.76,0,0,1-.21-.6c-.13-.29,0-.54-.18-.81s-.07-.24-.1-.49-.22-.21-.2-.68c-.37-.25-.1-.14-.28-.54a.79.79,0,0,1-.11-.29l-.12-.3c-.08-.24.08-.11-.1-.31a2.11,2.11,0,0,0-.27-.18c-.15-.11-.12-.12-.2-.23s0,0-.1-.1-.14-.08-.18-.32-.18-.34-.29-.59c-.26-.58-.56-.46-.68-.61s.07-.15-.17-.37l-.49-.64c-.12-.14-.21-.2-.32-.32s-.14-.24-.25-.32a3.46,3.46,0,0,1-.51-.39l-.47-.42c.12-.07.13-.25.15-.39-.19-.15-.34-.43-.54-.57l-.53-.41c-.3-.29-.25-.48-.41-.58s-.29,0-.49-.2-.07-.22-.13-.44a3.29,3.29,0,0,0-.76-1c-.24-.17-.36-.18-.48-.46v0a1.19,1.19,0,0,0-.9-.61c-.3-.07-.26-.14-.48-.22s-.29,0-.51,0l-.06-.1a.88.88,0,0,0-.06-.1,3.17,3.17,0,0,1-1-.22c-.35-.15-.46-.38-.75-.47s-.08,0-.23-.08-.27-.14-.64-.19-.25-.1-.47-.16a4.09,4.09,0,0,0-.61-.1c-.14-.15-.06-.2-.34-.26a3.85,3.85,0,0,0-.58-.08,1.37,1.37,0,0,1-.34.38c-.19.15-.72.4-.85.55a3.64,3.64,0,0,1-.41.36l.2,1.08c.11.29.29.17.52.19s.23.11.5.09c.43,0,.54.06.84-.15s.51,0,.87-.13.51.19.95-.07a1.75,1.75,0,0,1,1.9.43l0,0,0,0c.07.17.19.27.28.47l.18.37c.06.19.09.19.24.32l-.18.81-.44.13a10,10,0,0,0-1,.2c-.1,0-.12,0-.24.06-.44.17-.25.09-.76.14-.1,0-.18,0-.3,0a4.19,4.19,0,0,1-1.28.23s.07-.07,0,.12-.15.2-.25.36-.25.53,0,.72l.33.22c.35.29.34,0,.73.21s.53,0,.89,0c.16,0,.21,0,.37,0,.72-.08.21-.23,1-.19.26,0,.06-.06.31-.08,0,0,.6.12.75.15.67.11.28.07.74,0,.24,0,.14,0,.3.09s.18,0,.33.05c.58.14.3.15.55.37s.11,0,.21.19,0,.05.17.24.17.18.07.32-.19,0-.16.19,0-.15,0,.14-.55.39-.76.77c-.33,0-.21.08-.74.13a1.68,1.68,0,0,0-.24.06c-.83.22-.53.32-.84.42-.15,0-.34,0-.47.1s-.11.2-.32.37a4,4,0,0,1-.76.48l0,.25c.26.24.27.19.71.27a2.44,2.44,0,0,0,.46.07c.41,0,1-.38,1.4-.29a6.23,6.23,0,0,0,1.12-.05,8.26,8.26,0,0,1,.88,0,3.12,3.12,0,0,1,.87.05c.36,0,.56.14.89.2.15.21.11.26.44.32a5,5,0,0,1,1,.45l.12,0c.18.11.17.22.24.38s0,.34-.06.44c-.16.49-.06.43-.83.74a2.46,2.46,0,0,0-.41.13c-.46.26-.71.11-1,.26a3.54,3.54,0,0,1-.91.3l-.42.71c.13.12.29.39.48.4a2.24,2.24,0,0,1,.88,0c.37.05.66.07,1,.1l1.88.35c.26,0,.19.06.36.16s.33,0,.57.26c.08.07.07,0,.14.1a1.14,1.14,0,0,1,.43.58.74.74,0,0,1,.08.42l-.24.06a.66.66,0,0,1-.5.62c-.34.08-.59-.07-.91.08l-.55.23a.86.86,0,0,0-.48.31,1,1,0,0,1-.13.16c-.1.09-.32.21-.1.57a.55.55,0,0,0,.41.19c.37.06.22,0,.43.2a4.19,4.19,0,0,0,1.56.26c.23,0-.13-.11.21,0s-.06,0,.2.09.15-.11.48,0c.2.66.74.88.34,1.66-.13.26-.11.31-.35.45l-1.18.62c-.18.08-.36.07-.55.17s-.23.37,0,.55.08,0,.22.08a2.29,2.29,0,0,1,.63.39c.14.13.45.11.54.24l.06.09.12.1c.11.08.05,0,.14.12l0,0a.64.64,0,0,1,.23.43c0,.23.06.11.22.26s.1.12.15.32.08.17.17.29l.46.54c0,.48-.2.32-.29.75l-.25.06c0,.32-.16.4-.43.52l-.08,0c-.09.06,0,0-.09.13-.13.26,0,.13-.23.2a1.1,1.1,0,0,1-.32.74c-.07.07,0,0-.09.06a.47.47,0,0,0-.25.32,1.2,1.2,0,0,1-.77.88l-.06,0c-.36.14-.28.38-.45.58a4.19,4.19,0,0,0-.41.93c0,.08-.22.24-.27.32-.15.26.07.32-.33.82a1.77,1.77,0,0,0-.32.94c0,.3,0,.23.08.41a1.35,1.35,0,0,1,.35,0c.09-.48.42-.16.62-.45l.07-.17,0,0c.06-.13.24-.19.35-.28l.06,0a1.12,1.12,0,0,0,.38-.34l.09-.1c.15-.21,0-.35.26-.58l.35-.43c.16-.21.23-.18.36-.42l.4-.6c.1-.18.11-.28.25-.37a1,1,0,0,0,.37-.46h.39c0-.15-.27,0,0-.59.08-.17,0,0,.13-.19a3.24,3.24,0,0,1,.67-.58c.43-.33.28-.14.71-.41l.2-.08c.21-.05.27-.09.42-.13s.11.14.2.19.09-.06.34.06l.09.36c.08.18.06.2,0,.43s.13.46-.12.8c-.1.13-.08.18-.15.36a1.34,1.34,0,0,1-.26.34l0,.05,0,0c-.18.21-.08.32-.28.49s-.25.24-.41.58c-.06.14-.12.16-.19.3-.28.51-.49.17-.39,1,.05.39-.16.42-.38.55-.09.57-.09.24-.31.53a4.25,4.25,0,0,1-.32.54c-.17.17-.25.1-.36.42-.16.52-.18.51.1.89l.06.09,0,0c.07.12,0,0,.07.11l.64.58c.24.15.11,0,.26.2s.28.15.45.38,0,.19.25.4.19.5.36.71.19.63.27.93l.08.37a2.8,2.8,0,0,1,.1.59c0,.12.11.12.15.27a3.16,3.16,0,0,1,0,.32l.07.24c.05.16,0,.18,0,.35l0,.14c.06.53-.75.2-.12,1.06.09.13,0-.06.07.2a5.67,5.67,0,0,1,0,.94c-.08.35-.25.38-.32.88Z"/><path class="cls-3" d="M135.73,9c.14.12.26.1,0,.58a2,2,0,0,1-.75,1c-.25.23-.19.33-.37.53a1.38,1.38,0,0,0-.5.82c-.45,1.16-.61.83-.79,1.49-.27,0-.26.05-.38,0s0-.15-.3-.23-.29.33-.77-.17c0-.31,0-.21,0-.43s-.06-.28-.1-.4c-.12-.44.23-.41-.17-.75.1-.51-.11-.47,0-1l-.2-1.13c-.24-.92-.77-.78-.7-1.29-.35-.08-.16,0-.22-.18s0,0-.07-.12l-.27-.22,0,0,0,0-.45-.67c-.12-.21-.4-.18-.55-.48s-.2-.24-.53-.46c-.11-.07-.12-.12-.2-.19a2.77,2.77,0,0,1-.23-.17,1.61,1.61,0,0,0-.8-.49c0-.37,0-.15-.28-.32a3.83,3.83,0,0,0-1.42-.63,7.68,7.68,0,0,0-1.79-.28c-.45,0-.42-.12-1.14,0-.23.05-.53,0-.76.06s0,.18-.67.26a.79.79,0,0,0-.23,0l-1.23.3c-.2,0-.14.09-.28.18s0,0-.11.07a1.43,1.43,0,0,0,.81.62c.26.13.06.15.51.25.3.07.27.16.43.32s.21.11.31.24c.29.38.25,0,.58.68.07.14.1.11.16.2a5.18,5.18,0,0,1,.14.53c.07.17.21.21.26.4a2.23,2.23,0,0,0,.15.53,1.07,1.07,0,0,1,.1.22.42.42,0,0,0,.12.24c.2.2.24.08.36.37s.22.11.42.63a4,4,0,0,1,.38,1.33c.54.26.25.63.49.83.4.35.46,0,.27,1a.64.64,0,0,1-.23.5c-.32.35.16.19-.13.61-1.72,2.41,1.11-1.8,0,.06-.46.75-5-2.14-10,5.92-.34.35-.63.25-.75,1.14h.4c6.2-1.44,9.72-3.15,16.83-1.55.34.11.74-.31,1.23-.19.27.06.29,0,.5-.06a6.11,6.11,0,0,1,1.68.12,3,3,0,0,0,1.07.37c.08.17.19.3.39.24h0l.06,0c.13-.07.11-.11.24-.19s.17,0,.31-.14.18-.38.46-.49.12,0,.27-.18l.27-.32,0,0,.16-.13c.28-.23.37-.61.62-.88.49-.57.29-1.68.69-2.39.25-.44.07,0,.31-.65.08-.21.08-.07.14-.33a1.06,1.06,0,0,0,0-.5c-.11-.62.11-.54.14-1.09l.19-.87c.06-.21,0-.17,0-.34s0-.08,0-.34-.08-.17,0-.38,0,0,.08-.16a.85.85,0,0,0,0-.22.56.56,0,0,1,.06-.23c0-.12,0,0,.09-.1-.27-.23-.3.05-.27-.54,0,0,0-.29,0-.33l0-.15a.6.6,0,0,1,0-.23l-.15-.07c-.12-.15-.2-.32-.05-.49l-.08,0-.14-.1.05-.31-.26,0a.57.57,0,0,1-.26-.19l0,0-.18-.19c-.22-.15-.13-.27-.44-.3l-.1-.2-.05,0L138,6.84c-.47-.1-.06-.19-.54-.43L137,6.12c-.21-.23-.11-.21-.69-.35-.46.81,0,.3-.09,1.07a7.78,7.78,0,0,1-.4,1.35.9.9,0,0,1-.06.22c-.11.25-.06,0,0,.34a1,1,0,0,1,0,.29"/><path class="cls-4" d="M41.47,90.48h-.12m-.78-.06h0Zm.12,0h0Zm.13,0h0Zm.13,0h0Zm.13,0h0Zm.27,0h-.13m.25,0h-.26m.39,0h0Zm.11,0h0Zm.13,0h0Zm.12,0h0Zm.12,0h0Zm.13,0-.1,0Zm.11,0-.08,0Zm-1-8.23A3.41,3.41,0,1,1,38,85.56,3.41,3.41,0,0,1,41.37,82.15Zm0,1.66a1.72,1.72,0,1,1-1.72,1.72A1.72,1.72,0,0,1,41.34,83.81ZM18.8,58.05c.05-.08,13.43,2.73,14,1.23,13.58,1.66,25.62-13.06,10.1-22.63-1.86-7.31-8.6,1.84-2.43,2.28.62,0,.08,0,.46,0,14.49,5.65,2.76,20.41-8,18.07-.73-1.88-11.25-1.61-13-2.92s-2.43-14.16-4.46-14.71c-1.06-11.93,9.9-20,15.77-8.82a1.13,1.13,0,0,1,.06.81c.94,6.28,9.54-1.64,1.79-2.89C30.21,22,13,17.11,13.18,39.64c-1.91,1.58,1.5,10.59,3.1,16.41-18.64,26.49-8.31,49.71,3.43,55,9.21,4.17,23.36.17,22.37-20.61,0,0,.24,0,.25-.09a4.92,4.92,0,1,0-2.39-.1s0,.07,0,.11c.33,17.13-10.31,21.25-17.2,19.29C10.52,106.2-.1,80.29,18.8,58.05Z"/><path class="cls-5" d="M140.53,81.33a1.17,1.17,0,0,1,.69.17.7.7,0,0,1,.25.51c-.05.33-.1.61-.12.83-.1.41-.18.76-.26,1a5.65,5.65,0,0,1-.16.58,2.08,2.08,0,0,1-.41.67,2.91,2.91,0,0,1-.65.52,4.32,4.32,0,0,1-.68.39,1.07,1.07,0,0,1-.39.1l-.6-.07-.57,0a1,1,0,0,1-.41-.48,2.67,2.67,0,0,1-.21-.94,2.1,2.1,0,0,1,.58-1.32c.41-.53.78-.82,1.13-.85.19-.25.41-.52.67-.84a1.47,1.47,0,0,1,.47-.2,2.62,2.62,0,0,1,.67-.08m-6.67,13.79L134,95l0-.18a11.37,11.37,0,0,1,1.63-1.68,9.71,9.71,0,0,0,1.61-1.68,1.05,1.05,0,0,1,.4-.41,1,1,0,0,1,.47-.12,1.93,1.93,0,0,1,1.11.31,1.58,1.58,0,0,1,.65.92c.12.36.23.72.32,1.09s.2.74.27,1.11.23.58.39,1.06a3.17,3.17,0,0,0,.34.81.57.57,0,0,0,.28.25,1.32,1.32,0,0,0,.47.08,2,2,0,0,0,.67-.12,2.08,2.08,0,0,0,.68-.39l.55-.46.56-.47.87,1.62a7.58,7.58,0,0,1-.73.63l-1.11.84a9.08,9.08,0,0,1-1.23.78,2,2,0,0,1-.79.25,4.25,4.25,0,0,1-2.2-.37,5.18,5.18,0,0,1-1.25-2,2.62,2.62,0,0,0-.25-.34l-.36-.45a5.36,5.36,0,0,0-.43-.61c-.12-.13-.22-.2-.3-.2a1.4,1.4,0,0,0-.76.38,9.12,9.12,0,0,0-1.13,1.13c-.07-.15-.16-.34-.27-.55s-.23-.45-.35-.73a1.28,1.28,0,0,0-.11-.2A.93.93,0,0,0,133.86,95.12Zm-6.44-5a.61.61,0,0,0-.09-.26l-.64.61c-.25.23-.55.48-.9.76a4.75,4.75,0,0,1-.52.89c-.28.4-.67.9-1.18,1.5a5.67,5.67,0,0,0-.58.9c-.23.42-.53.94-.87,1.56a8,8,0,0,0-.37.89.37.37,0,0,0,.17.23,3.27,3.27,0,0,0,1.29-.92,22.55,22.55,0,0,0,1.74-2.11A16.93,16.93,0,0,0,127,91.76,3.45,3.45,0,0,0,127.42,90.14Zm-8.91,5,.1-.12,0-.17a5.9,5.9,0,0,1,.54-.6c.14-.15.26-.26.34-.34a1.33,1.33,0,0,1,.39-.22c.21-.1.48-.21.82-.35l.24-.14a3.94,3.94,0,0,1,.42-.56l.73-.84a1.6,1.6,0,0,1,.26-.23,2.43,2.43,0,0,0,.37-.31l.82-.83c.27-.29.53-.57.76-.85L125,89l1.31-1.14a4,4,0,0,1,.45-.26c.21-.11.49-.24.83-.39a.63.63,0,0,0,.34-.34,1.24,1.24,0,0,0,.07-.6,3.72,3.72,0,0,0,.25-.56,5.09,5.09,0,0,0,.21-.76c.1-.36.17-.65.22-.88s.1-.38.13-.47c.17-.52.4-1.14.7-1.84s.67-1.52,1.1-2.43q.32-.72.75-1.59a2.08,2.08,0,0,1,.66-.66,1.57,1.57,0,0,1,.79-.22.61.61,0,0,1,.51.25,1.53,1.53,0,0,1,.21.71,9.83,9.83,0,0,1,0,1.44,4.45,4.45,0,0,1-.31,1.28,1.27,1.27,0,0,0-.07.37c0,.16,0,.36,0,.59a1.1,1.1,0,0,1-.1.47,1.47,1.47,0,0,1-.28.42,1,1,0,0,1,0,.29c0,.11,0,.24-.05.4l-.23.31a.69.69,0,0,0,0,.26l0,.3a1.19,1.19,0,0,1-.1.41c-.07.21-.18.5-.32.87s-.31.71-.4.94a2.1,2.1,0,0,0-.17.44,3.25,3.25,0,0,0-.17.28c-.07.13-.16.27-.25.44l.08.38-.89,4c0,.44.06.81.1,1.13a3,3,0,0,0,.17.75,5.08,5.08,0,0,0,.35.72,9.1,9.1,0,0,0,.61.92,1.44,1.44,0,0,0,.51.48,1.27,1.27,0,0,0,.6.15,1.38,1.38,0,0,0,.69-.19,2.45,2.45,0,0,0,.68-.57c.17.31.34.59.49.86s.28.52.39.76a1.93,1.93,0,0,0-.37.35c-.19.21-.44.5-.74.87a1.52,1.52,0,0,1-.7.48,3.13,3.13,0,0,1-1,.15,3.76,3.76,0,0,1-2.3-.68,4.07,4.07,0,0,1-1.37-2c-.06-.18-.12-.34-.16-.48s-.1-.27-.15-.38a2.7,2.7,0,0,0-.49-.72,1.85,1.85,0,0,1-.18.26,3.23,3.23,0,0,0-1,1.07,2.51,2.51,0,0,1-.17.43,5.85,5.85,0,0,1-.37.6c-.36.44-.72.87-1.1,1.31l-1.12,1.28a6.18,6.18,0,0,1-1.44,1.28,2.26,2.26,0,0,1-1.18.42,2.05,2.05,0,0,1-1.4-.42,1.79,1.79,0,0,1-.53-1.28,2.88,2.88,0,0,1,.24-1.13,3.31,3.31,0,0,0,.24-1.08l-.14-.28Zm-3.73-5.66c-.27,0-.61.34-1,1a3,3,0,0,0-.58,1.49.23.23,0,0,0,.06.15.31.31,0,0,0,.2,0,.35.35,0,0,0,.31-.2c.08-.13.16-.26.22-.38a4.44,4.44,0,0,0,.37-.38c.12-.13.24-.26.35-.4a1.58,1.58,0,0,0,.3-.48,1.06,1.06,0,0,0,.07-.49.4.4,0,0,0-.08-.26A.22.22,0,0,0,114.78,89.46Zm-5.48,5.66a3.61,3.61,0,0,1,.52-.72,5.34,5.34,0,0,1,.84-.77l.06-.69a5.3,5.3,0,0,0,0-.69,4.35,4.35,0,0,1,.14-.58c.06-.22.13-.46.21-.71s.22-.58.38-1a13,13,0,0,1,.65-1.29c.24-.27.49-.56.74-.88l.78-1a4.5,4.5,0,0,1,.42-.3c.15-.1.31-.2.46-.32l.49-.12a3.64,3.64,0,0,1,.6,0,2.56,2.56,0,0,1,.75.09,1.05,1.05,0,0,1,.5.29,2.16,2.16,0,0,1,.27.43,5.13,5.13,0,0,1,.29.68c0,.23.11.49.18.77,0-.07,0,0-.06.08l-.15.62-.12.55a5.62,5.62,0,0,1-1,1.94A22.87,22.87,0,0,1,114,94a1.51,1.51,0,0,0-.2.31,1,1,0,0,0,0,.39,1.33,1.33,0,0,0,.18.64,1,1,0,0,0,.43.43,2.43,2.43,0,0,0,.49.21c.22.06.48.13.78.19a6.73,6.73,0,0,0,1.3-.23,4.81,4.81,0,0,0,1-.43l.29-.15a2.28,2.28,0,0,0,.39-.27l.49.92c.14.27.26.5.35.7a10.76,10.76,0,0,1-1.81,1.49,3,3,0,0,1-1.54.5,2.17,2.17,0,0,1-.66.26,4.52,4.52,0,0,1-.89.07,3.59,3.59,0,0,1-1.22-.19,2.68,2.68,0,0,1-.92-.56,2.35,2.35,0,0,1-.4-.52c-.15-.24-.29-.51-.46-.83a2.18,2.18,0,0,0-.35-.56.45.45,0,0,0-.35-.19.56.56,0,0,0-.32.13,2.12,2.12,0,0,0-.38.4,4.57,4.57,0,0,0-.31-.66C109.72,95.83,109.53,95.51,109.3,95.12ZM97.12,80.2c-.07,0-.13,0-.15,0a.2.2,0,0,0,0,.16c1.56,1.44,2.36,2.49,2.41,3.18,0,.47-1.39,7.72-1.59,9.38a11.12,11.12,0,0,0-.11,2,.43.43,0,0,0,.11.28.32.32,0,0,0,.24.09,2.74,2.74,0,0,0,.65-.16,8.53,8.53,0,0,0,1.21-.54q.47-.24.93-.45c.31-.14.63-.28,1-.44l.45-.27A7.52,7.52,0,0,0,104.82,91a3.77,3.77,0,0,0,.28-1.86,6.2,6.2,0,0,0-.26-1.31,8.59,8.59,0,0,0-.57-1.36l-.07-.42a.8.8,0,0,0-.15-.2c-.07-.07-.13-.16-.22-.26a2.49,2.49,0,0,1-.26-.28,2.79,2.79,0,0,1-.27-.45,6.94,6.94,0,0,0-1.18-1.34,25.32,25.32,0,0,0-2.21-1.85l-.36-.29L99.12,81l-.86-.36Zm-1.36,2.07a3.26,3.26,0,0,0-.38-.65c-.21-.27-.44-.63-.76-1s-.54-.68-.69-.9a1.22,1.22,0,0,1-.24-.45c0-.32.34-.86,1.08-1.61s1.29-1.13,1.66-1.13a2.49,2.49,0,0,1,.62.32h.55c.35.16.7.31,1.06.45l1.06.44a7.57,7.57,0,0,1,1.94,1,6.64,6.64,0,0,0,1.25.88,5.82,5.82,0,0,0,.48.46c.24.22.55.49,1,.81a1.23,1.23,0,0,1,.2.2c.09.09.16.19.26.29q.85.9,1.47,1.65a8.51,8.51,0,0,1,.92,1.39,8.64,8.64,0,0,1,.65,1.67,10.45,10.45,0,0,1,.32,2,8.41,8.41,0,0,1-.31,3.26c-1,2.8-6.1,4.38-8.56,5.43-.33.13-.58.28-.8.37a1.55,1.55,0,0,1-.52.14,1.54,1.54,0,0,0-.64.07c-.08,0-.11.51-.1,1.4,0,.57,0,1.14,0,1.69a1.49,1.49,0,0,0,.25.69,4,4,0,0,0,.66.86c-.1.23-.21.46-.33.68s-.29.45-.48.72a2.74,2.74,0,0,1-.63.7,1.09,1.09,0,0,1-.64.24,1,1,0,0,1-.94-.61,4.75,4.75,0,0,1-.42-1.84,4.35,4.35,0,0,1,.06-1c0-.39.15-.88.28-1.44l-.17-1-.49-.23c-.15-.08-.3-.18-.46-.26a1.73,1.73,0,0,1-.49-.31.66.66,0,0,1-.17-.36c0-.13.27-.34.85-.62s.84-.64.81-1.09a3,3,0,0,0-.12-.56,2.19,2.19,0,0,1-.13-.54C94.94,90.46,95.3,86.17,95.76,82.27Zm-23,12.85.11-.12,0-.18a11.56,11.56,0,0,1,1.64-1.68,10,10,0,0,0,1.6-1.68,1.13,1.13,0,0,1,.4-.41,1,1,0,0,1,.47-.12,1.93,1.93,0,0,1,1.11.31,1.64,1.64,0,0,1,.66.92c.11.36.22.72.32,1.09s.19.74.27,1.11a11,11,0,0,1,.38,1.06,3.17,3.17,0,0,0,.34.81.59.59,0,0,0,.29.25,1.26,1.26,0,0,0,.46.08,2.14,2.14,0,0,0,1.36-.51c.17-.15.35-.31.54-.46l.56-.47.88,1.62a7.86,7.86,0,0,1-.74.63l-1.11.84a9.07,9.07,0,0,1-1.22.78,2,2,0,0,1-.8.25,4.28,4.28,0,0,1-2.2-.37,5.43,5.43,0,0,1-1.25-2,2.43,2.43,0,0,0-.24-.34c-.11-.12-.23-.28-.37-.45a5.36,5.36,0,0,0-.43-.61c-.12-.13-.22-.2-.29-.2a1.37,1.37,0,0,0-.76.38,8.48,8.48,0,0,0-1.13,1.13l-.28-.55c-.11-.21-.23-.45-.35-.73a.78.78,0,0,0-.11-.2A.93.93,0,0,0,72.73,95.12Zm-22.67-.76c.5-.64,1-1.21,1.45-1.72s.92-1,1.35-1.35c.21-.21.48-.48.79-.81s.66-.71,1.08-1.14c.43-.16.9-.35,1.41-.56a.91.91,0,0,1,.76.31,1.44,1.44,0,0,1,.31.88,7.57,7.57,0,0,1,0,1.06c0,.37-.08.76-.14,1.16a8.28,8.28,0,0,0-.21.9.27.27,0,0,0,.07.19.28.28,0,0,0,.19.06,5.65,5.65,0,0,0,1-.88c.49-.5,1.14-1.2,1.94-2.1a11.64,11.64,0,0,1,1.82-1.73,2.45,2.45,0,0,1,1.28-.56.93.93,0,0,1,.81.37,2,2,0,0,1,.33,1.11,11.67,11.67,0,0,1,0,2,7.6,7.6,0,0,1-.43,1.9.92.92,0,0,0-.07.3,1.7,1.7,0,0,0,0,.22c0,.08.09.16.24.23a2.29,2.29,0,0,0,.32-.35c.12-.15.25-.34.41-.57l.8-.67c.26-.22.56-.45.87-.68a4,4,0,0,1,1-.59,3,3,0,0,1,1-.2.45.45,0,0,1,.19,0l.2.13a9,9,0,0,1,.74.64,2.34,2.34,0,0,1,.42.49,13.94,13.94,0,0,0,1.44,2.09c.41.46.76.69,1,.69a.41.41,0,0,0,.19,0,.88.88,0,0,0,.17-.12c.33.58.61,1.11.84,1.62a8.52,8.52,0,0,1-1.12.74,2,2,0,0,1-.89.26,4,4,0,0,1-2.74-1.57c-1-1-1.71-1.57-2.19-1.57-.63,0-1.63.9-3,2.7s-2.21,2.7-2.58,2.7a6.29,6.29,0,0,1-.75-.06.43.43,0,0,1-.23-.23.94.94,0,0,1-.11-.39,3.1,3.1,0,0,1,.06-.69c.06-.29.13-.62.23-1s.22-.88.3-1.17a5.07,5.07,0,0,0,.12-.61c0-.16,0-.45.09-.9s.08-1,.14-1.76a.42.42,0,0,0-.13-.3.41.41,0,0,0-.27-.1.61.61,0,0,0-.28.07,2.06,2.06,0,0,0-.34.26c-.14.15-.29.3-.46.46s-.44.36-.81.64L57.5,95.64c-.42.48-.84,1-1.28,1.46-.67.81-1.22,1.41-1.62,1.81s-.68.58-.81.58a2.34,2.34,0,0,1-.84-.12.42.42,0,0,1-.31-.37,8.92,8.92,0,0,1,.48-2.4A9.09,9.09,0,0,0,53.58,94a.3.3,0,0,0-.1-.2.29.29,0,0,0-.22-.08.85.85,0,0,0-.5.23,3.58,3.58,0,0,0-.64.74c-.16.19-.35.4-.57.64C49.54,97.52,49.24,95.52,50.06,94.36Z"/><path class="cls-5" d="M171.81,94.63l1.22-.86a1.26,1.26,0,0,0,.16-.2,2.18,2.18,0,0,0,.2-.34,1,1,0,0,1,.24-.32,1.31,1.31,0,0,1,.36-.23,2.39,2.39,0,0,1,.29-.36l.5-.5a3.75,3.75,0,0,0,.38-.26,3.12,3.12,0,0,0,.49-.44,14.2,14.2,0,0,1,2.12-1.85,3.07,3.07,0,0,1,1.59-.62.83.83,0,0,1,.56.16.6.6,0,0,1,.21.44,1.26,1.26,0,0,1-.07.53.83.83,0,0,1-.3.39l-.73.58a6,6,0,0,1-.5.64,5.75,5.75,0,0,1-.71.67,3.77,3.77,0,0,0-.22.33l-.25.26a4.78,4.78,0,0,1-.49.43,3,3,0,0,1-.56.82c-.29.34-.68.74-1.17,1.21a5.59,5.59,0,0,0-.33.46c-.15.24-.35.55-.59,1l.11.13a2.23,2.23,0,0,0,.63-.35,6.38,6.38,0,0,0,.7-.64l.73-.73a4.23,4.23,0,0,1,.41-.37l.19-.11.21-.15a5.78,5.78,0,0,1,1.13-1.17,1.82,1.82,0,0,1,1-.38.54.54,0,0,1,.47.24,1.44,1.44,0,0,1,.23.71c0,.48.05.94.08,1.38a1.35,1.35,0,0,0,.31.83.87.87,0,0,0,.7.37.46.46,0,0,0,.25-.08,1.77,1.77,0,0,0,.23-.19l.17-.25c.05-.08.11-.15.17-.23l.16-.1.19-.18c.15.29.29.54.4.76s.19.4.25.56c-.21.21-.4.42-.6.63a7.36,7.36,0,0,1-.63.62,3.5,3.5,0,0,1-.78.5,1.83,1.83,0,0,1-.78.17A2,2,0,0,1,178.7,98a2.86,2.86,0,0,1-.69-1.62,1.38,1.38,0,0,0-.06-.26,1,1,0,0,0-.17-.28l-.14.15a2.09,2.09,0,0,0-.19.21l-.43.36c-.18.14-.38.32-.61.52l-.77.85c-.21.22-.37.37-.45.47a5.76,5.76,0,0,1-.63.49c-.23.16-.51.33-.8.5a4.63,4.63,0,0,1-.5.25.73.73,0,0,1-.3.1,1.45,1.45,0,0,1-1-.34,1.58,1.58,0,0,1-.41-1,1.83,1.83,0,0,1,.12-.74,2,2,0,0,1,.45-.69,1.58,1.58,0,0,0,0-.31.27.27,0,0,0,0-.14,1.74,1.74,0,0,0-.11-.18c-.06-.14-.14-.29-.22-.46s-.17-.35-.28-.54a1,1,0,0,0,.15-.22c.06-.11.13-.25.22-.4m-9.82.62c.14-.2.27-.41.41-.63A12,12,0,0,0,164,93a5.94,5.94,0,0,0,.85-1.49l-.19-.69a2.29,2.29,0,0,1,.85-.84,2.16,2.16,0,0,1,1.14-.5,1.32,1.32,0,0,1,.84.29l.69.6.24.17a2.89,2.89,0,0,1,.93,1.19,5.31,5.31,0,0,1,.42,1.85,4.39,4.39,0,0,1-.32,1.65,5,5,0,0,0-.32,1.62.24.24,0,0,0,.06.11.2.2,0,0,0,.14,0,.82.82,0,0,0,.43-.16,3.35,3.35,0,0,0,.51-.46,5.66,5.66,0,0,1,.84-.82,1.67,1.67,0,0,0,.36-.27c.09.19.2.4.32.62s.24.45.36.7l-.27.28-.37.36c-.3.24-.69.53-1.19.87s-1.07.73-1.76,1.17a2.74,2.74,0,0,1-.62.3,1.85,1.85,0,0,1-.91-.18.69.69,0,0,1-.34-.58,1,1,0,0,1,0-.37,3.26,3.26,0,0,1,.14-.45l.15-.38a2.74,2.74,0,0,0,.15-.4,13.66,13.66,0,0,0,.35-1.68,6.84,6.84,0,0,0,.06-1.4,2.59,2.59,0,0,0-.32-1.16,1,1,0,0,0-.74-.46,4.06,4.06,0,0,0-.64.49,6.3,6.3,0,0,0-.7.79,7.91,7.91,0,0,1-.67.85,2.58,2.58,0,0,1-.5.45,2.33,2.33,0,0,1-.38.49,5.1,5.1,0,0,1-.7.59l-.08.17a1,1,0,0,1-.16.26c-.1-.22-.2-.44-.31-.66S162.12,95.48,162,95.25Zm-7.8,0,.05-.11c.06-.08.12-.18.21-.29a3.54,3.54,0,0,1,.29-.4,14.73,14.73,0,0,0,1.79-2.26,24.49,24.49,0,0,0,1.67-3,3.79,3.79,0,0,0,.23-.42c.08-.17.17-.39.26-.64a.17.17,0,0,0-.05-.13.21.21,0,0,0-.15,0,1,1,0,0,0-.27,0,1.35,1.35,0,0,1-.29,0h-1.77l-.37,0h-.38l-.27-.13-.24-.1a.68.68,0,0,1-.27-.15.31.31,0,0,1-.11-.23,3.71,3.71,0,0,1,.09-1.41c.1-.32.28-.48.55-.48s.51,0,.74,0l.63.09.39-.08a6,6,0,0,1,.65,0,2.58,2.58,0,0,1,.42.07l.35-.08.39-.08.47.14c.33,0,.65-.51,1-1.41s.67-1.36,1.1-1.36a.71.71,0,0,1,.54.22,1,1,0,0,1,.23.63,2.57,2.57,0,0,1-.13.87,4.34,4.34,0,0,0-.16.82.94.94,0,0,0,.09.12,1.2,1.2,0,0,0,.16.15.38.38,0,0,1,.14.2,1.39,1.39,0,0,1,.06.33,8.88,8.88,0,0,1,0,1.34q0,.47-.21.48l-1,.2c0,.1,0,.22,0,.36s-.05.3-.08.47c-.13.48-.26,1.09-.41,1.82s-.29,1.6-.47,2.61c-.09.8-.16,1.45-.2,2a6.71,6.71,0,0,0,0,1,.77.77,0,0,0,.09.35.27.27,0,0,0,.22.11,1.93,1.93,0,0,0,.59-.41c.33-.28.79-.7,1.39-1.24l.65,1.32a3.18,3.18,0,0,1-.37.38,5.11,5.11,0,0,1-.58.46,3.2,3.2,0,0,1-.32.36c-.14.13-.28.28-.44.45l-.46.58c-.15.2-.31.39-.46.57a2.28,2.28,0,0,1-.62.54,1.19,1.19,0,0,1-.6.17,1.21,1.21,0,0,1-1-.38,1.92,1.92,0,0,1-.39-1.14c0-.56,0-1,0-1.45a4.88,4.88,0,0,1,.11-1,1,1,0,0,0,.07-.2,3.13,3.13,0,0,1,0-.39c0-.16,0-.35.05-.57,0-.37.07-.75.1-1.13.09-.22.18-.47.28-.73,0,0-.05-.09-.13-.12l-.13.08a5.31,5.31,0,0,1-.5.73,10.57,10.57,0,0,1-.75.8L155.24,96a1.42,1.42,0,0,1-.14.22c-.07.09-.14.21-.23.35l-.21-.44c-.08-.17-.18-.38-.27-.61a.65.65,0,0,0-.09-.16A.38.38,0,0,0,154.19,95.25Zm-10.41-.62,1.22-.86s.09-.11.15-.2a1.56,1.56,0,0,0,.21-.34.82.82,0,0,1,.23-.32,1.31,1.31,0,0,1,.36-.23,3.53,3.53,0,0,1,.3-.36l.5-.5.38-.26a3.64,3.64,0,0,0,.49-.44,13.72,13.72,0,0,1,2.12-1.85,3,3,0,0,1,1.59-.62.79.79,0,0,1,.55.16.57.57,0,0,1,.21.44,1.13,1.13,0,0,1-.06.53.79.79,0,0,1-.31.39l-.72.58a6,6,0,0,1-.5.64,5.22,5.22,0,0,1-.72.67,3.49,3.49,0,0,0-.21.33l-.25.26a6.18,6.18,0,0,1-.49.43,3.21,3.21,0,0,1-.56.82,15.81,15.81,0,0,1-1.18,1.21c-.06.07-.16.22-.32.46s-.35.55-.59,1l.1.13a2,2,0,0,0,.63-.35,6.38,6.38,0,0,0,.71-.64l.73-.73a3.29,3.29,0,0,1,.41-.37l.18-.11.22-.15a5.53,5.53,0,0,1,1.13-1.17,1.77,1.77,0,0,1,1-.38.52.52,0,0,1,.46.24,1.44,1.44,0,0,1,.24.71c0,.48,0,.94.07,1.38a1.49,1.49,0,0,0,.31.83.89.89,0,0,0,.71.37.41.41,0,0,0,.24-.08,1,1,0,0,0,.23-.19,2.79,2.79,0,0,0,.17-.25l.18-.23.15-.1a1.07,1.07,0,0,0,.19-.18c.16.29.29.54.4.76a4.93,4.93,0,0,1,.25.56l-.6.63a6,6,0,0,1-.62.62,3.33,3.33,0,0,1-.79.5,1.77,1.77,0,0,1-.78.17,2,2,0,0,1-1.45-.53,2.87,2.87,0,0,1-.7-1.62,1.32,1.32,0,0,0-.05-.26,1,1,0,0,0-.17-.28l-.15.15-.18.21-.44.36-.6.52-.78.85c-.21.22-.36.37-.44.47a5.76,5.76,0,0,1-.63.49c-.24.16-.51.33-.81.5a4.59,4.59,0,0,1-.49.25.78.78,0,0,1-.3.1,1.48,1.48,0,0,1-1-.34,1.63,1.63,0,0,1-.4-1,1.54,1.54,0,0,1,.12-.74,2.17,2.17,0,0,1,.44-.69,1.72,1.72,0,0,0,0-.31.3.3,0,0,0-.05-.14.81.81,0,0,0-.1-.18c-.07-.14-.14-.29-.23-.46l-.27-.54a1.55,1.55,0,0,0,.15-.22C143.62,94.92,143.69,94.78,143.78,94.63Z"/><path class="cls-5" d="M80.12,81.64a.84.84,0,0,1,.58.16.63.63,0,0,1,.19.49c-.06.32-.12.58-.16.8-.11.4-.2.73-.28,1s-.14.44-.18.56a2.31,2.31,0,0,1-.4.64,3,3,0,0,1-.6.5,3.08,3.08,0,0,1-.63.38.76.76,0,0,1-.34.09l-.52-.06-.49,0a.8.8,0,0,1-.33-.46,2.78,2.78,0,0,1-.12-.91,2.26,2.26,0,0,1,.59-1.27c.39-.51.73-.78,1-.82l.65-.8a1.21,1.21,0,0,1,.41-.2,2.15,2.15,0,0,1,.6-.07"/><path class="cls-3" d="M41.38,83.67a1.82,1.82,0,1,1-1.82,1.82,1.81,1.81,0,0,1,1.82-1.82"/><path class="cls-3" d="M88.63,30.38c-.12.48-.42.23-.47.76q.18.18.33.36c.41.49.35,0,.61.57.17.37.3.28.58.62s0,.16.44.52c.12.08,0,0,.1.1a3.85,3.85,0,0,0,.67.89l.61.61c.07.11,0,.11.19.18s.41,0,.42.11.34.3.34.3c.26.17.11.17.52.25l0,.11c.16.29.6.32.93.49a3,3,0,0,0,1.19.43,1.2,1.2,0,0,0,.62.35,1.34,1.34,0,0,0,.79,0c.06-.42-.16-.23-.13-.65s.14-.55.18-.85a5.81,5.81,0,0,1,.19-1.26,2.54,2.54,0,0,0,.2-.51,1.35,1.35,0,0,0,.15-.57.84.84,0,0,1-.41-.25c-.18-.17-.31-.08-.53-.2s0-.06-.2-.14a1.71,1.71,0,0,1-.3-.09,4.74,4.74,0,0,1-.5-.26c-.5-.31-.59-.22-1-.49s-.2-.07-.49-.18-.31-.21-.48-.28l-1-.4h0l-.88-.29c-.16-.06-.08-.07-.26-.14a5.12,5.12,0,0,0-1.28-.17c-.49,0,.23.16-1.15.07"/><path class="cls-3" d="M98.76,38.48c-.18.22.06.35-.65.26-.09.45,0,.33.15.58.23.44.08.42.56.93.25.27.2.12.26.52,0,.2.16.29.23.51s.24.16.66.73c.06.08,0,0,.1.1a3.22,3.22,0,0,0,.62.27c0,.16,0,.18.18.41s.47.28.67.47.07.17.35.26c.52.16.06.17,1,.31a1,1,0,0,0,1.09-.32c.13-.12.06,0,.12-.2l0-1a2.45,2.45,0,0,0-.33-.78c-.18-.22-.09,0-.16-.38s-.09-.17-.21-.35,0-.09-.34-.3c0-.32.05-.36-.27-.43,0-.39-.09-.07-.11-.67a2,2,0,0,0-.4-.89c-.17-.25-.12-.1-.33-.31-.46-.43-.39-.28-.76-.08l-.6.21c-.21.05-.12.08-.34.1-1.14.06-.54.19-1.5.09"/><path class="cls-3" d="M65.29,40.61l-.09-.22a6.21,6.21,0,0,1-1.1-.13c-.46-.12,0-.08-.39,0a2.87,2.87,0,0,1-.73.15,5.07,5.07,0,0,0-1,.2c-.28.1-.26-.05-.52.09a5.41,5.41,0,0,0-1.49.71l0,0,0,0,0,0,0,0c-.27.26-.31.24-.42.47A4,4,0,0,0,59,43c-.07.51-.24,1.26.35,1.49a1.63,1.63,0,0,0,1-.15c.15,0,.43,0,.58,0,.35-.05,0-.17.5-.13s.23,0,.52-.14-.22.06.08,0a3.3,3.3,0,0,0,.79-.34L64.08,43c.12-.14.18-.36.26-.45s.15,0,.25-.45c.14-.64.36-.42.47-.94s.1-.33.23-.51"/><path class="cls-3" d="M86.41,27.76c.37.11,0-.05.28.39a1.23,1.23,0,0,1,.14.25c.06.25-.06.3.16.38l.66.13.09.26c.7.16.75-.34.94-.55s0,.08.38-.39.1-.16.17-.56c.17-.19.14,0,.19-.26a3.89,3.89,0,0,1,.17-1.23c.2-.61-.08-.72,0-1.52-.15-.11-.2-.13-.25-.29s0-.15-.06-.22a.75.75,0,0,0-.18-.39L89,23.69c0-.05,0,0-.07-.07a2.6,2.6,0,0,0-1.51-.26c-.21,0-.23.31-.48.58s-.14.2-.29.35A2.39,2.39,0,0,0,86.26,26c0,.32.14.14.13,1,0,.27.08.19.16.42.15.42-.07.18-.14.41"/><path class="cls-3" d="M70.67,36.25c.3.34.23.08.68,0s.22-.07.42-.13L72.2,36a3.59,3.59,0,0,0,1.2-.42A3.73,3.73,0,0,0,74.73,35c.4-.42.41,0,.84-.58.21-.29.1-.1.29-.28s0-.6.54-.63c.11-.49.15-.21.33-.59l.12-.19s.18,0,.2-.43c0-.26-.08-.19-.17-.43-.87-.19-.26-.39-1.15-.19-.38.08-.29,0-.91.4l-.42.25a.88.88,0,0,1-.27,0c-.22,0,.07,0-.13,0l-.13.05c-.6.22-.09.07-.6.39-.18.12,0,0-.16.22a.82.82,0,0,1-.38.25h0c-.13,0-.23,0-.45.22s0,.08-.47.34c-.31.17-.18.49-.44.66a1.39,1.39,0,0,1-.13.06c-.23.12-.09.22-.14.55s-.06.24-.21.5a3,3,0,0,0-.18.6"/><path class="cls-3" d="M78.74,31.42c.11.11.05.13.18.18a1.38,1.38,0,0,0,1,.18c.17,0,.37.11.66.15a5.37,5.37,0,0,0,.77.07c.25,0,.32-.19.6-.05a1.52,1.52,0,0,0,.74.21c.3,0,1-.1,1.41,0,.07-.07.08-.18.2-.25s0,.13.55-.33a1.28,1.28,0,0,1,.3-.17c.55-.35.44-.42.72-.63l.13-.09.13-.08c.19-.13-.07-.6-.08-.63a4.63,4.63,0,0,1-1-.31c-.56-.14-.68,0-1.11,0a2.21,2.21,0,0,0-1,.09c-.2,0-.35,0-.54,0s-.27.11-.43.15a3.12,3.12,0,0,0-.9.22,1.56,1.56,0,0,1-1,.22c-.75-.09-.43-.09-.94.53-.15.18-.09.39-.38.58"/><path class="cls-3" d="M98.65,33.05c0,.06-.06,0,.1.13s.19.07.36.17a3.43,3.43,0,0,1,.27.26c.63.52.65.65,1.06,1l.44.48,0,0a1.65,1.65,0,0,1,.24.6s0,.13,0,.16l.1.08c.23.19.13.16.49.22.29-.28.25,0,.25-.49.33-.12.07,0,.31-.3a.87.87,0,0,0,.24-.51,8.56,8.56,0,0,1,.08-.91c.14-.5.37,0,.14-1.28a1.07,1.07,0,0,0-.5-.81,2.67,2.67,0,0,0-1.61,0c-.12.05-.2.19-.38.28a.71.71,0,0,0-.17.11c-.14.12,0,.06-.18.15l-.22.11-.2.12c-.42.24-.38.08-.56.23s-.08.15-.28.19"/><path class="cls-3" d="M76.12,26.66c-.08.44-.09.51-.35.72,0,0,0,0,0,0l0,0,0,0c-.09.48,0,.28,0,.6a2.44,2.44,0,0,1-.07.65c.42.43,0,.14.2.48l0,0,.17.25c.11.22,0,.29.12.52.37.07.72-.27,1-.35.63-.17,1.61.19,1.27-1.44-.08-.38.06-.49,0-.76l-.07-.16a.44.44,0,0,1-.05-.3c-.52-.13-.25-.22-.46-.41a2.6,2.6,0,0,0-1-.29Z"/><path class="cls-3" d="M66.49,34.5a1.76,1.76,0,0,1,.44.6,3.37,3.37,0,0,0,.21.31c.18.29.11.05.29.29a.59.59,0,0,0,.88,0c.3-.28.3-.11.53-.47.44-.69.27-.22.49-.59s.27-.17.28-.89A1.61,1.61,0,0,0,69.4,33c-.29-.42-.35,0-.55-.56-1-.23-1,0-1.63.45a1.19,1.19,0,0,0-.42,1c-.08.22-.23.16-.31.65"/><path class="cls-3" d="M97.72,37.27c.45.09.43-.05.78,0s.43,0,.87,0c.16,0,0-.21.67-.21.24,0,.18,0,.32-.11s.09-.07.32-.12c.08-.24.06-.27-.19-.56a4,4,0,0,0-.82-.87l-1.17-.91c-.18-.14-.27-.59-.58-.14a3.24,3.24,0,0,0-.26,1.05,2.06,2.06,0,0,0-.06.55,2,2,0,0,1,0,.5c0,.19-.12.31-.07.47s0,.09.09.18,0,.1.09.19"/><path class="cls-3" d="M66.9,39.85l.48.21a1.54,1.54,0,0,1,.17-.34c.22-.29.09-.09.19-.32s.06,0,.25-.23.08-.22.3-.45.8-1,.2-1.11c-.32,0-.82,0-.8.6,0,.28.1,0,0,.4-.13.68-.17.41-.39.61a2.85,2.85,0,0,0-.23.26c0,.07-.15.29-.19.37"/><path class="cls-4" d="M88.24,30.94s0,0,0,0,.17.24.3.39c1.35,1.62,6.59,5.43,8.31,6a11.08,11.08,0,0,1,0-2.26,13.91,13.91,0,0,1,.46-2,24.58,24.58,0,0,0-3.95-2A23.79,23.79,0,0,0,89.43,30c-.16.11-1.08.79-1.19.91m-23,9.32a8.37,8.37,0,0,0-2.22.05c-1.49.11-3.76.81-4,2.55-.35,2.58,2.78,1.24,3.86.7l1.24-.73A27.11,27.11,0,0,1,65.25,40.26Zm10.56-9.12a.05.05,0,0,0,0,0,9,9,0,0,0-2.65,1.15A11.81,11.81,0,0,0,71,34.18a7.93,7.93,0,0,1,0,1.24,3.85,3.85,0,0,1-.29,1.07c4.63-.56,5.81-3,6.51-4.34A3.9,3.9,0,0,1,75.81,31.14Zm3,.15c-.07.18-.06.08.17.19,1.88.9,4.72.46,7.41-.94,0,0-.38-.61-.54-1a21.75,21.75,0,0,0-6.36.56S78.86,31.11,78.79,31.29Zm-2.48-1.52s.64-.18,1.26-.33l1.12-.3c0-1.29-.3-3.2-1.81-2.89s-1.12,2.94-.65,3.49C76.25,29.76,76.29,29.76,76.31,29.77Zm-8.93,6c.16.15.43.4.54.38s1.82-2.06,2.18-2.53c0,0,0,0,0-.06C68.84,30,64.45,33.23,67.38,35.81Zm-.52,3.86.63.52c.46-.83,1.05-1.54,1.57-2.44l-1,0A12.85,12.85,0,0,0,66.86,39.67Zm31.58-.36c1.26,3.93,3.81,5.3,4.82,4.79s1.15-2,.53-3.48a12,12,0,0,0-1.87-2.94,8.91,8.91,0,0,1-3.74,1.07S98.39,39.17,98.44,39.31ZM87,28.66l1.59.18a3.33,3.33,0,0,0,.58-1c2-5.42-2.9-6.12-2.9-2C86.31,26.36,86.69,28.52,87,28.66ZM98.63,33l.17.1a19.08,19.08,0,0,1,3.09,2.82,7.7,7.7,0,0,0,1-2.13C103.47,30.24,99.43,31.54,98.63,33Zm-.75,4.53a8.36,8.36,0,0,0,3.23-.72s-.7-.84-1.42-1.55a17.84,17.84,0,0,0-1.6-1.38,7.15,7.15,0,0,0-.34,1.74A6.41,6.41,0,0,0,97.88,37.49ZM126.15,4.56c-3.2-1.06-7.09.12-7.24.54,0,.1.89.6,1,.69,1.92,1.38,5.26,4.81,4.64,8.66l0,.06c-.26.41-.9.22-1.31.08-3.48-.6-7.24,2.93-8.92,5.58-.69,1.08-1,2.4.35,1,2.21-1.71,8.7-3.52,13.24-2.66a5,5,0,0,1,3,1.62,9.85,9.85,0,0,1,2.55-.05,14.07,14.07,0,0,1,3,.51c1.14-.94,3-4.72,3.22-8.06s-1.17-6.28-3.75-7.1c-.83-.27-.35-.15-.27.26A11.13,11.13,0,0,1,134,13c-.45.68-.83,1.06-1,.54C131.3,9.36,129.56,5.69,126.15,4.56Zm26.4,55.78c-1.13-1-2.28-1.34-1.84-2.68.59-1.87,2.88-3.86,3.23-6,.23-1.42-1.26-1-2-.43-1.54,1.2-3.08,5.48-5.12,5.65-1.67-4.83,9-6.15,1.6-10.6-.24-.19-.26-.4,0-.55a3.8,3.8,0,0,1,.54-.18c3.91-3-1.56-2.56-2.09-3.43s1.76-1.25,2.17-1.34.81-.72.66-1.1a1.12,1.12,0,0,0-.43-.58c-.08-.07-.07,0-.15-.11a8.1,8.1,0,0,0-2.81-.76c-.65-.07-1.19-.11-1.84-.14-1.56-.28-.55-2,2.29-1.8.7-.28,1.37-1.14.65-1.55l-.11-.05c-2.77-1.07-6.91-.26-7.78-1.07-.42-.94,5.13-1.67,4.07-3.47-1.23-2.08-5.56.69-6.55-1.11-1.2-2.16,3.86-.08,3.9-3,0-1.33-2.28-1-4.12-.75a2.44,2.44,0,0,1-1.85-.49c-.49-1.17,1.2-2.41,1.75-3.05,11.82,3.44,17.32,17,15.74,24,0,.19.07.41.25.51.91.46,17.91-8.28,22.33,2.44.14.32.38.24.07.6,0,0-.41-.32-.44-.29-4.28-1.13-9.36.19-13.08,2.52-.29.19-.48.82-.28,1,4,0,8.71,2.49,10.06,5.81.88,2.17.26,5.62-1.68,8.77,0-1.27-1.11-3.11-1.71-4.1-1.2-2-6.61-6.11-9.45-4.29-.15.2-.1.28,0,.44,3.81,6.84-2.14,12.44-6.31,12.4C152.46,69.9,155.07,62.52,152.55,60.34ZM70.21,54.42c4.71,1.52,9.68,2.41,13.8,1.5,4.45-1,6.51-3.38,8.77-4.54.64-.73,3.74,2.22,2.83,2.86a23.92,23.92,0,0,1-7.3,3.42.56.56,0,0,1-.52-.09c-.35-.33-2.36-3.07-3.16-.53-1,1.75-.11.34-.95,1.75a1.12,1.12,0,0,1-.43.36c-.39.24-4.76.19-5.88-.59-.3-.08-.31.47-.3.14a5.08,5.08,0,0,0,.14-.83.56.56,0,0,0-1.07-.2c0,.08-.21.51-.28.61-.8,3.19,5.57,2.15,8.06,1.86a1.45,1.45,0,0,0,.66-.53,11.56,11.56,0,0,1,1.17-2.15c1.5.23.13,2.22,3.73,1.1,1.67-.57,6.17-2.67,7.47-4,.63-1.17-3-5.38-5-4A46.46,46.46,0,0,1,86.65,54C80,57.39,70.14,52.68,70.1,52.68a.91.91,0,0,0-.45.18Zm3.26,9.08a13.12,13.12,0,0,1-3.38-9.12l.12,0-.56-1.56c-.53.43-.58,1.47-.64,2,.48,5.33,2.45,8.67,5.23,10.75Zm2.79,7.79c-6.55-2.94-11.82-9.42-12.68-15.75-.55-4,0-9.18,1.42-11.65A9.51,9.51,0,0,1,66.11,43a6.24,6.24,0,0,1,1.27-.83c.26.22.11,3.94,1.25,4.16s.83-.69,1.38-2.62,11.07-2.15,9.82,1c0,.28-.72.91-1,1.22a2.71,2.71,0,0,0-.39,3,3.14,3.14,0,0,0,3.82.21c-.19-.06,2,3.65,4.32,0,.24-.66,1.52-.13,1.85-.09,2.75.27,2-2.89.27-4.26-.64-.83-2-.66-.68-1.5s6.16-2.61,6.93,1.23c.09.46-.23,1,.1,1.31,1,1,5.91.43,6,1.42.16,1.38-1,1.16-.68,2.63-.09,1.49,3,1.59-.1,3.9C98.83,54.62,98.9,67,86,67.83c-4.61.29-9.4-1-12.49-4.33l.77,2.15a17.84,17.84,0,0,0,8.78,3c11.84,1.33,15.4-5.92,18-13.71,4.64-4.17,1.1-3.31.73-5.48.22-1.67,2.11-3-.46-3.65-.2,0-.36-.12-.63-.17-1.71-.36-2.51-.31-4.24-.62.13-4.58-6.93-5.49-10.52-1.32a.77.77,0,0,0-.22.67c0,.66.76.18,1.43.62.09.06.06.08.17.14,1.7,1,2.26,3.5.52,2.79-.86-.44-1.12-.38-1.95.24s-1.13,1.69-2,1.14c-.48-.31-.24-.83-1.22-1.47-1.22-.42-1,.74-2.1.85a1.43,1.43,0,0,1-.67-.2,1.41,1.41,0,0,1-.32-.47,2.51,2.51,0,0,1,1.09-2.22c1.71-1.52-.1-3.21-1.75-4.06-2.54-1.31-8.86-.84-9.74.89-.09.24-.27,2.13-.41,1.45s-.14-2.41-.37-3c-.13-.34-.07.18-.06-.14,0-.1,2.11-3.56,2.18-3.57,6.36-.75,7.59-4.89,7.74-4.86,2.12.34,3,1.3,7.94-.78.68-.28.72-.33.76-.3,3.93,3.76,4.51,4.38,9.82,7.15l.18.1s0,0,.07.19c1.52,4.68,5.22,7.85,7.36,5.42,2.36-2.67-1.67-7.56-1.67-7.56,3.9-7.24-3.07-7.6-5-4.52a24,24,0,0,0-7.82-3.08c.4-.64,2.67-6-1.11-6.94-4.13-1-4.12,4.42-3.27,6.2l-1.28-.07a15.36,15.36,0,0,0-4.63.66s.35-3.23-2-3.58-3.28,2.32-2.37,4.74a11.75,11.75,0,0,0-4.52,2.92,2.74,2.74,0,0,0-5.31.3c-.12,1.17.21,1.84,1.26,3.29a2.42,2.42,0,0,1,.35.53c-.13.24-1.25,1.89-1.25,1.89-2.42-.1-7.07.4-7.83,3s1.14,4,4.28,3l1.39-.52-.55,1.58c-.08.25-.53,2.61-.58,3A22,22,0,0,0,76.79,72.75Zm-10.8-29.1s.61-.4,1-.65a2.8,2.8,0,0,0,.41-.38s-.6-.5-.62-.38A9.6,9.6,0,0,0,65.46,42.19Zm4.26-5.64a2.22,2.22,0,0,0,.32-1.4l0,0-1.1,1.28h0a1.23,1.23,0,0,0,.74.14Zm7.08-5.89c.19.11.89.58,1,.54a1.53,1.53,0,0,0,.21-.34c.09-.15.47-.77.45-.76A14.38,14.38,0,0,1,76.8,30.66Zm10.6-.52,0,.07m-.34-.62a5.15,5.15,0,0,1,.33.61c.09,0,.57-.43.7-.49A7.15,7.15,0,0,0,87.1,29.59Zm24.55,5a6.53,6.53,0,0,1,1.1-1.69,32.88,32.88,0,0,1,6.87-7.18A27.15,27.15,0,0,1,130,21.25s.2-.11.22-.06c.46,1.39-1.33,2.92-2.08,3.3-9.53,4.88-12.32,13.41-8.55,20.2,2.62,4.7,8.8,7.58,14.87,8.22-1.28,1.58-6.37,2-10.15-.3-8.51-5.2-7-11.37-7.45-12-.59-.91-2.24,1.8-2.38,3.06-2.88,16.3,16.79,19.62,22.4,13.86a3.17,3.17,0,0,1,1-.75c1.37-.23,2.25.75,3.65-.65.21-.26.55-.73.78-1,.91-.89,1.76-.48,2.46-1.07,1-1,1.19-2.62-.27-4.29-1.07-1.21.32-4.09.48-5.07.64-3.49-2.22-5.46-5.35-6.49a14.24,14.24,0,0,1-3.74-1.39c-.53-.33-.64-1.24-.72-1.87-.69-5.78-5.21-8.28-9.87-5.1-1,1.06-.25.8.87.69a4.85,4.85,0,0,1,1.88.14c3.7,1.23,4.36,5.66.91,6.46-2.77.61-5.17.91-4,4,.35.9,1.55,1.57,1.65,2.58-.24.64.79,1.69,1.56,1.63a2.07,2.07,0,0,1,1.91,1c1.39,1.33,2.42.83,3.56-.18,1.78-2.93.76-4.37,2.63-5.2,1.35-.56,2.81.39,3.64,1.45a4.85,4.85,0,0,1,.52,5.21c-.1.26-.79,1.15-.27,1.17s1-.73,1.32-1.14a5.73,5.73,0,0,0-4.77-7.81,3.47,3.47,0,0,0-2.89,2.86c-.09,1-.72,2.78-1.56,3.19-1.18.93-1.3-1-3-1.47-.91-.16-1.49-.08-1.76-1.33s-1.35-1.53-1.53-2.43a1.11,1.11,0,0,1,.47-1.65,9.09,9.09,0,0,1,3.32-.83c3.83-1.43,2.92-7.17-1.1-8.32a10,10,0,0,1-1.37-.1,3.68,3.68,0,0,1,1.44-.54c6.17,0,5.22,6.4,6.05,7.93a4.81,4.81,0,0,0,3.17,1.58,12.2,12.2,0,0,1,4,1.44c4.78,3-1.13,7.45,2,10.68a1.78,1.78,0,0,1,0,2.49c-.76.43-1.43.06-2.1.67S140.63,55.9,139.9,56c-1.19.09-1.93-.76-3.24.41-2.22,2-2.36,2.45-5.79,3-5.35.15-7.9-.55-11.37-2.93a11.7,11.7,0,0,1-3.64-4.9,13.41,13.41,0,0,1-.78-7.55c.16-.59.36-1.32.71-1.28.07,0,.15.17.29.64a16.55,16.55,0,0,0,8.46,10.53c5.15,2.39,10.94,1.11,12.39-1.52.39-.7-19.1.34-17.75-15.78.84-5.54,4.27-8.29,9-11.09,2.42-1.43,3.08-2.86,3-4.53a12.8,12.8,0,0,1,2.07,0,12.51,12.51,0,0,1,2.42.38c-1.56,1.45-3.41,4.67.63,4.75,1.49.08,2.68-.68,3.67-.31,2.23,1.58-6.21.27-3.64,3.92a3.52,3.52,0,0,0,2.83.92,24.48,24.48,0,0,1,2.77-.44c2.1.38-.84,1.44-1.55,1.81a17.51,17.51,0,0,0-1.88,1c-.6.54-.36.91.36,1.32.38.4,5.22.39,6,.49a5.14,5.14,0,0,1,1.61.51c-.21.82-3,.14-3.51,1.64-.86,2.37,2.85,2.27,4.24,2.5.16,0,.35,0,.43,0s.31.11.3.22-3.19.86-2.6,2.24c.07.17,0,.19.12.29s.05,0,.11.09a5.16,5.16,0,0,0,3.18,1.34c.44.06.32.52,0,.64-.1,0-.27,0-.33.08s0,.09-.25.16c-2.22.75-1.43,2.46-.33,2.72.12.23,2.24.76,1.78,2.24-.6,2-4.55,3.52-4,7.31a1.3,1.3,0,0,0,1.81,1c1.62-.51,3.93-4.85,4.66-4.8-.25,1.16-2.23,3.24-2.58,4.77a1.82,1.82,0,0,0,.35,1.49c.85.9.54.53,1.57,1.18,3.4,2.16-.69,11.78-.2,12.18.47,1.17,13.51-2.82,8.06-13.46,1.63-.58,4.13.53,5.72,1.81,2.65,2.15,4.44,5.6,4.33,7.4.85.59,4.23-6.74,3-9.94-1.86-4.76-7.33-5.63-9.18-6.67.38-.92,7.74-4,11.93-1.52a.62.62,0,0,0,.94,0,3.05,3.05,0,0,0-.29-1.78c-3.35-8.54-14.41-6.08-21.41-3.74-.27,0-.45.21-.53-.11l0-.27c.12-2.35,0-.76,0-1.15C154,27,137.46,20.58,137.4,21c2.21-2.4,6.44-14.16-2.19-16.47-1,.14-.65.37-.41.95.75,1.8-.25,5.67-1.17,6.94-.23.31-.29.28-.4,0-.54-1.3-2-7.14-7.74-8.61-4.62-1.18-8.49,1-8.35,1.18-.12.17.26.44.48.51,3.07,1,6.88,6.09,5.91,8.2-6.18-.47-11.07,7.39-11.07,8.83,0,1,.89.91,1.82,0s7.87-4.22,13-3.22a7.2,7.2,0,0,1,2.51,1,29.1,29.1,0,0,0-8.61,3.2c-5.4,3.43-11,9.64-12.83,16.91-1.61,6.75-1,11.84-2.05,17.13a17,17,0,0,1-2,5.2,21.46,21.46,0,0,1-5.84,6.63c-3.27,2.45-10.69,4.28-17.12,3.39a18.51,18.51,0,0,1-5-1.48l.53,1.46A22.55,22.55,0,0,0,84.45,74c6,0,10.72-1.33,13.89-3.26a21.4,21.4,0,0,0,8.22-10.2c1.14-2.81,1.15-5.11,1.54-9.71a66.58,66.58,0,0,1,1-9.49A39.44,39.44,0,0,1,111.65,34.58Z"/><path class="cls-5" d="M34.34,95.82c-.92,0-2,.29-3.5.34a33.32,33.32,0,0,1-5,3,24.53,24.53,0,0,1-5,1.69c-1.72.36-5-.08-5-1.4,0-.4.27-.79.83-1.16A27.31,27.31,0,0,1,27.88,94.9c.17,0-.4.46-.4.59,0,.37-.63.85-1.58.85a7.49,7.49,0,0,0-1.76.68.54.54,0,0,0,.34.2,4.73,4.73,0,0,0,1.65-.78c.86-.52,1.27-.85,1.25-1L27.24,95l.36,0a2,2,0,0,0,1.16-1.54A2.33,2.33,0,0,0,28,92.18a17,17,0,0,0-2.15-2,24.21,24.21,0,0,0-2.18-1.66c-1.53-1-5.38-3.63-6-5.09a4.83,4.83,0,0,1-.33-1.94A3.58,3.58,0,0,1,17.7,80a3.74,3.74,0,0,1,.87-1.27,2.27,2.27,0,0,0,.18-.28,2.12,2.12,0,0,1,.19-.36,8.91,8.91,0,0,1,2.23-2,31.59,31.59,0,0,1,4.13-2.32c.23-.08.51-.18.83-.32a9.49,9.49,0,0,0,1.09-.52,6.7,6.7,0,0,1,.76-.36q.42-.15,1-.3l1.74-.48c1-.34,1.76-.6,2.38-.75a6,6,0,0,1,1.44-.24,2.21,2.21,0,0,1,1.42.39,1.46,1.46,0,0,1,.47,1.16,4.14,4.14,0,0,1-.19,1.38,1.32,1.32,0,0,1-.49.71q-3.39,1.88-5.45,2.83a8.56,8.56,0,0,1-2.89,1,1,1,0,0,1-.63-.17.51.51,0,0,1-.23-.47c0-.36.43-.76,1.29-1.19s1.28-.77,1.26-1l-.26-.12a1.1,1.1,0,0,0-.33.06l-.39.15A24.06,24.06,0,0,0,24.31,78,3,3,0,0,0,23,80a2.93,2.93,0,0,0,.34,1.34,5.88,5.88,0,0,0,.95,1.4c.31.33.76.76,1.33,1.27S27,85.13,27.9,85.86c1.24,1,2.19,1.76,2.86,2.32a12.21,12.21,0,0,0,1.12.86,8.46,8.46,0,0,1,1,1,3.5,3.5,0,0,1,.55,1,4.73,4.73,0,0,1,.19.93,13.39,13.39,0,0,1,.06,1.37c0,.28-.14.9,0,1a3.66,3.66,0,0,0,.89.06c2.19-.16,1.47,1.44-.2,1.43"/></g></svg>